<?xml version="1.0" standalone="no"?><!DOCTYPE svg PUBLIC "-//W3C//DTD SVG 1.1//EN" "http://www.w3.org/Graphics/SVG/1.1/DTD/svg11.dtd"><svg t="1647999978617" class="icon" viewBox="0 0 1024 1024" version="1.1" xmlns="http://www.w3.org/2000/svg" p-id="1509" xmlns:xlink="http://www.w3.org/1999/xlink" width="200" height="200"><defs><style type="text/css">@font-face { font-family: feedback-iconfont; src: url("//at.alicdn.com/t/font_1031158_u69w8yhxdu.woff2?t=1630033759944") format("woff2"), url("//at.alicdn.com/t/font_1031158_u69w8yhxdu.woff?t=1630033759944") format("woff"), url("//at.alicdn.com/t/font_1031158_u69w8yhxdu.ttf?t=1630033759944") format("truetype"); }
</style></defs><path d="M474.33955555 3.52711111l-0.4551111 508.24533334 0.11377777 3.64088888c0.11377778 1.36533333 0.34133333 2.73066667 0.56888889 4.096-1.25155555 10.24 1.70666667 20.48 8.192 28.44444445l2.73066667 3.072 345.42933333 357.94488889C611.328 1084.64355555 290.816 1049.03111111 115.14311111 829.44S-24.91733333 289.33688889 194.67377778 113.664c79.98577778-64.05688889 177.49333333-102.4 279.66577777-110.13688889z m115.93955556 546.13333334l430.08-0.11377778a506.89137778 506.89137778 0 0 1-133.57511111 307.2L590.39288889 549.66044445l430.08-0.11377778h-430.08v0.11377778h-0.11377778z m-39.936-76.45866667l0.34133334-469.67466667c251.10755555 18.88711111 450.67377778 218.45333333 469.67466666 469.56088889l-470.016 0.11377778 0.34133334-469.67466667-0.34133334 469.67466667z" p-id="1510"></path></svg>