<?xml version="1.0" standalone="no"?><!DOCTYPE svg PUBLIC "-//W3C//DTD SVG 1.1//EN" "http://www.w3.org/Graphics/SVG/1.1/DTD/svg11.dtd"><svg t="1647927394122" class="icon" viewBox="0 0 1024 1024" version="1.1" xmlns="http://www.w3.org/2000/svg" p-id="1479" xmlns:xlink="http://www.w3.org/1999/xlink" width="200" height="200"><defs><style type="text/css">@font-face { font-family: feedback-iconfont; src: url("//at.alicdn.com/t/font_1031158_u69w8yhxdu.woff2?t=1630033759944") format("woff2"), url("//at.alicdn.com/t/font_1031158_u69w8yhxdu.woff?t=1630033759944") format("woff"), url("//at.alicdn.com/t/font_1031158_u69w8yhxdu.ttf?t=1630033759944") format("truetype"); }
</style></defs><path d="M220.72888889 26.54814777a194.18074112 194.18074112 0 0 0-194.18074112 194.18074112v582.54222222a194.18074112 194.18074112 0 0 0 194.18074112 194.18074112h582.54222222a194.18074112 194.18074112 0 0 0 194.18074112-194.18074112V220.72888889a194.18074112 194.18074112 0 0 0-194.18074112-194.18074112H220.72888889z m291.27111111 176.51029333a145.63555555 145.63555555 0 0 1 205.95294777 0l102.98861113 102.98861113a145.63555555 145.63555555 0 0 1 0 205.95294777l-85.82788779 85.82788779-68.64289223-68.66716445 85.82788779-85.80361557a48.54518557 48.54518557 0 0 0 0-68.66716444l-102.98861-102.96433778a48.54518557 48.54518557 0 0 0-68.66716444 0l-85.80361557 85.80361557-68.64289109-68.64289223L512 203.0584411z m-154.47077888 291.78083556l-85.80361557 85.80361557a48.54518557 48.54518557 0 0 0 0 68.66716444l102.96433778 102.98861a48.54518557 48.54518557 0 0 0 68.66716444 0l85.80361557-85.82788779 68.66716445 68.66716445L512 820.9415589a145.63555555 145.63555555 0 0 1-205.95294777 0l-102.98861113-102.98861113a145.63555555 145.63555555 0 0 1 0-205.95294777l85.82788779-85.80361443 68.64289223 68.64289109z m-51.48216889-120.14933333a24.27259221 24.27259221 0 0 1 0-34.32144555l34.32144555-34.32144555a24.27259221 24.27259221 0 0 1 34.32144555 0l343.26300444 343.26300444a24.27259221 24.27259221 0 0 1 0 34.32144555l-34.32144555 34.32144555a24.27259221 24.27259221 0 0 1-34.32144555 0L306.04705223 374.68994333z" p-id="1480"></path></svg>