<?xml version="1.0" standalone="no"?><!DOCTYPE svg PUBLIC "-//W3C//DTD SVG 1.1//EN" "http://www.w3.org/Graphics/SVG/1.1/DTD/svg11.dtd"><svg t="1647926573073" class="icon" viewBox="0 0 1024 1024" version="1.1" xmlns="http://www.w3.org/2000/svg" p-id="1385" xmlns:xlink="http://www.w3.org/1999/xlink" width="200" height="200"><defs><style type="text/css">@font-face { font-family: feedback-iconfont; src: url("//at.alicdn.com/t/font_1031158_u69w8yhxdu.woff2?t=1630033759944") format("woff2"), url("//at.alicdn.com/t/font_1031158_u69w8yhxdu.woff?t=1630033759944") format("woff"), url("//at.alicdn.com/t/font_1031158_u69w8yhxdu.ttf?t=1630033759944") format("truetype"); }
</style></defs><path d="M8.26926775 104.15571753v672.08155085a29.78732563 29.78732563 0 0 0 29.9452593 29.60609029h947.5709459a29.78732563 29.78732563 0 0 0 29.9452593-29.60609029V104.15571753a29.78214747 29.78214747 0 0 0-29.9452593-29.60479574H38.21452705a29.78214747 29.78214747 0 0 0-29.9452593 29.60609028z m871.56860398 436.5662031h-196.31672889a30.14979635 30.14979635 0 0 1-20.57409676-8.09604235L507.64776233 387.39292413a30.15756357 30.15756357 0 0 0-44.01041762 3.09394646l-111.42997081 138.64893251a30.04623328 30.04623328 0 0 1-23.44149902 11.18739975H174.46468014a29.78214747 29.78214747 0 0 1-29.94525931-29.60479574v-5.91603991a29.78214747 29.78214747 0 0 1 29.94525931-29.60609026h122.52157471a30.08248035 30.08248035 0 0 0 23.41819733-11.18739975L456.72321581 294.38423293a30.16274173 30.16274173 0 0 1 44.01430122-3.09394648l188.40451097 176.20866592a30.11743289 30.11743289 0 0 0 20.57409677 8.09992598h140.16872042a29.78214747 29.78214747 0 0 1 29.94655384 29.60609027v35.51695201zM131.15331318 888.69769165H886.4840312a29.78214747 29.78214747 0 0 1 29.9413757 29.60609027v5.96005421a29.78214747 29.78214747 0 0 1-29.9413757 29.60609027H131.15331318a29.78214747 29.78214747 0 0 1-29.94525929-29.60609027v-5.92898528a29.78214747 29.78214747 0 0 1 29.94525929-29.6371592z" p-id="1386"></path></svg>