<?xml version="1.0" standalone="no"?><!DOCTYPE svg PUBLIC "-//W3C//DTD SVG 1.1//EN" "http://www.w3.org/Graphics/SVG/1.1/DTD/svg11.dtd"><svg t="1647926834661" class="icon" viewBox="0 0 1024 1024" version="1.1" xmlns="http://www.w3.org/2000/svg" p-id="11903" xmlns:xlink="http://www.w3.org/1999/xlink" width="200" height="200"><defs><style type="text/css">@font-face { font-family: feedback-iconfont; src: url("//at.alicdn.com/t/font_1031158_u69w8yhxdu.woff2?t=1630033759944") format("woff2"), url("//at.alicdn.com/t/font_1031158_u69w8yhxdu.woff?t=1630033759944") format("woff"), url("//at.alicdn.com/t/font_1031158_u69w8yhxdu.ttf?t=1630033759944") format("truetype"); }
</style></defs><path d="M130 978.9c-115.7 0-162.9-81.9-105.1-182l381.6-661.1c57.8-100.2 152.4-100.2 210.2 0l381.6 661.1c57.8 100.2 10.5 182-105.1 182H130z m430.6-221.8c0-5.9-1.8-11.7-5.4-16.3-3.7-4.4-8.3-6.6-13.1-6.6h-64c-4.8 0-9.5 2.2-13.1 6.6-3.7 4.4-5.4 10.4-5.4 16.3v38.2c0 5.9 1.9 11.7 5.4 16.3 3.6 4.4 8.3 6.7 13.1 6.7h63.8c4.7 0 9.5-2.2 13.1-6.7 3.6-4.4 5.4-10.3 5.4-16.3v-38.2h0.2z m-5.6-87.3c3.7-3 5.4-6.9 5.4-11 0-60.3-0.1-202.2-0.1-315.2 0-3.8-1.9-7.9-5.4-10.8-3.6-3-8.3-4.6-13.1-4.6H478c-4.7 0-9.5 1.5-13.1 4.6-3.6 3-5.3 6.9-5.3 10.8 0 113.9 0.2 255.6 0.4 315.1 0 3.9 1.8 7.9 5.4 10.8 3.6 3 8.3 4.4 12.9 4.4l63.6 0.2c4.7 0.2 9.5-1.3 13.1-4.3z m0 0" p-id="11904"></path></svg>